<?xml version="1.0"?>
<svg xmlns="http://www.w3.org/2000/svg" xmlns:xlink="http://www.w3.org/1999/xlink" xmlns:svgjs="http://svgjs.com/svgjs" version="1.1" width="512" height="512" x="0" y="0" viewBox="0 0 512.148 512.148" style="enable-background:new 0 0 512 512" xml:space="preserve" class=""><g>
<g xmlns="http://www.w3.org/2000/svg" transform="translate(-1)">
	<g>
		<g>
			<path d="M101.528,88.413c-3.348-3.234-8.671-3.188-11.962,0.104c-3.292,3.292-3.338,8.614-0.104,11.962l153.412,153.412     c2.143,2.218,5.315,3.108,8.299,2.327s5.313-3.111,6.094-6.094s-0.109-6.156-2.327-8.299L101.528,88.413z" fill="#ffffff" data-original="#000000" style="" class=""/>
			<path d="M58.58,45.464c-3.348-3.234-8.671-3.188-11.962,0.104c-3.292,3.292-3.338,8.614-0.104,11.962L64.92,75.954     c3.337,3.337,8.747,3.337,12.083,0s3.337-8.747,0-12.083L58.58,45.464z" fill="#ffffff" data-original="#000000" style="" class=""/>
			<path d="M470.39,425.599l-74.974-91.255l19.063-19.055c10.118-10.133,10.107-26.549-0.026-36.668s-26.549-10.107-36.668,0.026     l-17.698,17.69l-24.405-31.002l161.792-127.377c1.822-1.437,2.981-3.553,3.209-5.862L513.057,9.394     c-0.011-0.286-0.04-0.571-0.085-0.853c0.046-0.282,0.074-0.567,0.085-0.853c-0.066-0.275-0.148-0.546-0.247-0.811     c-0.109-0.557-0.278-1.1-0.503-1.621c-0.205-0.499-0.46-0.976-0.759-1.425c-0.307-0.442-0.659-0.851-1.05-1.22     c-0.377-0.39-0.795-0.739-1.246-1.041c-0.452-0.301-0.932-0.558-1.434-0.768c-0.513-0.21-1.044-0.373-1.587-0.486     c-0.307-0.06-0.555-0.23-0.853-0.265s-0.563,0.085-0.853,0.085c-0.29,0-0.555-0.128-0.853-0.085L380.969,12.338     c-2.309,0.228-4.426,1.386-5.862,3.208l-118.05,149.956L139.007,15.546c-1.437-1.822-3.553-2.981-5.862-3.208L10.443,0.05     c-0.299,0-0.563,0.085-0.853,0.085c-0.29,0-0.555-0.128-0.853-0.085S8.174,0.255,7.883,0.314C7.372,0.419,6.872,0.574,6.39,0.775     C5.832,1.001,5.3,1.287,4.803,1.629C4.417,1.912,4.055,2.226,3.719,2.567C3.295,2.984,2.912,3.442,2.576,3.933     C2.316,4.336,2.094,4.761,1.91,5.204c-0.239,0.548-0.416,1.12-0.529,1.707C1.27,7.163,1.176,7.422,1.099,7.687     c0.011,0.286,0.04,0.571,0.085,0.853C1.139,8.823,1.111,9.108,1.099,9.394l12.288,122.701c0.228,2.309,1.386,4.426,3.208,5.862     l161.835,127.437l-24.456,30.976l-17.732-17.732c-10.245-9.776-26.363-9.776-36.608,0c-4.858,4.854-7.588,11.44-7.588,18.308     c0,6.868,2.73,13.454,7.588,18.308l19.072,19.072l-74.982,91.273C19.978,425.882,0.905,445.262,1,469.008     s19.325,42.972,43.072,43.064c23.747,0.091,43.123-18.986,43.401-42.732l91.264-74.982l19.072,19.072     c10.139,9.936,26.387,9.855,36.426-0.182c10.039-10.037,10.124-26.285,0.19-36.426l-17.724-17.724l40.354-31.787l40.354,31.77     l-17.69,17.698c-7.387,7.404-9.604,18.52-5.625,28.191s13.377,16.008,23.835,16.071h0.085c6.891,0.013,13.5-2.731,18.355-7.62     l19.055-19.055l91.213,74.974c0.269,23.759,19.652,42.854,43.413,42.766c23.761-0.088,43.002-19.326,43.095-43.087     C513.24,445.259,494.149,425.872,470.39,425.599z M386.277,28.961l108.715-10.889l-10.889,108.715L325.17,251.928l-11.477-14.583     c-0.221-0.28-0.46-0.545-0.717-0.794l-10.743-13.653l122.394-122.394c3.234-3.348,3.188-8.671-0.104-11.962     c-3.292-3.292-8.614-3.338-11.962-0.104L291.6,209.398l-23.689-30.097L386.277,28.961z M62.813,487.261     c-10.224,10.223-26.8,10.223-37.024-0.001c-10.224-10.224-10.224-26.8,0-37.024c10.224-10.224,26.8-10.224,37.024-0.001     C73.014,460.468,73.014,477.027,62.813,487.261z M83.386,450.567c-2.082-4.619-4.972-8.829-8.533-12.433     c-3.604-3.562-7.814-6.451-12.433-8.533l68.412-83.14l35.772,35.772L83.386,450.567z M222.36,388.888     c3.43,3.451,3.43,9.024,0,12.476v-0.051c-1.655,1.657-3.901,2.587-6.242,2.587s-4.587-0.931-6.242-2.587l-24.499-24.491     l-49.092-49.092l-24.542-24.542c-2.23-2.229-3.102-5.478-2.287-8.523c0.815-3.046,3.193-5.425,6.238-6.242     s6.295,0.052,8.525,2.281L222.36,388.888z M204.568,346.879l-19.191-19.191L166.16,308.47l25.711-32.589l45.73,36.002     c0.268,0.263,0.553,0.509,0.853,0.734l4.838,3.806L204.568,346.879z M249.735,299.792c-0.233-0.234-0.481-0.454-0.742-0.657     L30.01,126.787L19.122,18.072l108.715,10.889L300.21,247.883c0.198,0.258,0.415,0.5,0.649,0.725v0.051l16,20.326     c0.051,0.068,0.06,0.162,0.111,0.23c0.051,0.068,0.128,0.077,0.179,0.137l30.805,39.134l-19.217,19.2l-19.217,19.217     L249.735,299.792z M328.779,376.831l-0.043,0.068l-24.465,24.439c-1.663,1.678-3.927,2.621-6.289,2.62     c-3.55-0.072-6.719-2.245-8.064-5.531c-1.346-3.286-0.611-7.057,1.869-9.599l24.457-24.448l24.576-24.576l24.576-24.576     l24.448-24.439c1.69-1.65,3.961-2.569,6.323-2.56c3.577-0.012,6.806,2.14,8.171,5.446c1.365,3.306,0.594,7.109-1.95,9.624     l-24.439,24.388l-0.077,0.051L328.779,376.831z M430.727,450.61l-83.217-68.361l35.789-35.789l68.369,83.217     C442.314,433.789,434.842,441.258,430.727,450.61z M488.31,487.261c-10.223,10.215-26.79,10.211-37.008-0.009     c-10.218-10.22-10.218-26.788,0-37.008c10.218-10.22,26.785-10.224,37.008-0.009C498.516,460.466,498.516,477.029,488.31,487.261     z" fill="#ffffff" data-original="#000000" style="" class=""/>
			<path d="M443.143,78.437h0.017c2.263,0,4.433-0.9,6.033-2.5L467.6,57.53c2.218-2.143,3.108-5.315,2.327-8.299     c-0.781-2.984-3.111-5.313-6.094-6.094s-6.156,0.109-8.299,2.327L437.11,63.871c-2.44,2.44-3.169,6.11-1.849,9.298     C436.582,76.357,439.692,78.436,443.143,78.437z" fill="#ffffff" data-original="#000000" style="" class=""/>
		</g>
	</g>
</g>
<g xmlns="http://www.w3.org/2000/svg">
</g>
<g xmlns="http://www.w3.org/2000/svg">
</g>
<g xmlns="http://www.w3.org/2000/svg">
</g>
<g xmlns="http://www.w3.org/2000/svg">
</g>
<g xmlns="http://www.w3.org/2000/svg">
</g>
<g xmlns="http://www.w3.org/2000/svg">
</g>
<g xmlns="http://www.w3.org/2000/svg">
</g>
<g xmlns="http://www.w3.org/2000/svg">
</g>
<g xmlns="http://www.w3.org/2000/svg">
</g>
<g xmlns="http://www.w3.org/2000/svg">
</g>
<g xmlns="http://www.w3.org/2000/svg">
</g>
<g xmlns="http://www.w3.org/2000/svg">
</g>
<g xmlns="http://www.w3.org/2000/svg">
</g>
<g xmlns="http://www.w3.org/2000/svg">
</g>
<g xmlns="http://www.w3.org/2000/svg">
</g>
</g></svg>
