<?xml version="1.0"?>
<svg xmlns="http://www.w3.org/2000/svg" xmlns:xlink="http://www.w3.org/1999/xlink" xmlns:svgjs="http://svgjs.com/svgjs" version="1.1" width="512" height="512" x="0" y="0" viewBox="0 0 511 511.99947" style="enable-background:new 0 0 512 512" xml:space="preserve"><g><path xmlns="http://www.w3.org/2000/svg" d="m322.296875 157.917969 31.128906-32.472657 4.796875 4.84375c3.863282 3.898438 9.011719 6.058594 14.5 6.082032h.097656c5.449219 0 10.578126-2.109375 14.453126-5.949219l22.660156-22.445313c8.042968-7.972656 8.105468-21.003906.132812-29.050781l-31.648437-31.945312c-2.984375-3.011719-7.847657-3.035157-10.863281-.050781-3.011719 2.984374-3.035157 7.851562-.050782 10.863281l31.648438 31.945312c2.011718 2.027344 1.996094 5.3125-.035156 7.324219l-22.65625 22.449219c-.976563.964843-2.269532 1.5-3.644532 1.5-.007812 0-.019531 0-.027344 0-1.382812-.007813-2.679687-.550781-3.65625-1.535157l-9.914062-10.007812c-.132812-.15625-.265625-.3125-.414062-.460938l-22.871094-23.042968-38.976563-39.339844c-2.007812-2.027344-1.996093-5.316406.035157-7.324219l22.65625-22.449219c2.03125-2.007812 5.316406-1.992187 7.328124.035157l20.921876 21.121093c2.984374 3.011719 7.847656 3.035157 10.863281.050782 3.011719-2.988282 3.035156-7.851563.050781-10.863282l-20.925781-21.121093c-7.96875-8.046875-21.003907-8.105469-29.050781-.132813l-22.65625 22.445313c-6.351563 6.292969-7.703126 15.730469-4.082032 23.386719l-33.082031-4.074219c-16.691406-2.054688-33.558594 4.015625-45.113281 16.238281l-52.617188 55.664062h-39.875c-12.554687 0-22.765625 10.214844-22.765625 22.769532v86.109375c0 4.242187 3.4375 7.679687 7.679688 7.679687 4.242187 0 7.679687-3.4375 7.679687-7.679687v-86.109375c0-4.085938 3.320313-7.40625 7.40625-7.40625h83.304688c-2.292969 4.191406-3.597656 8.996094-3.597656 14.101562 0 16.253906 13.226562 29.480469 29.480468 29.480469h53.339844c9.878906 0 19.589844-2.242187 28.425781-6.378906v140.027343h-198.355469v-52.992187c0-4.242187-3.4375-7.679687-7.679687-7.679687s-7.683594 3.4375-7.683594 7.679687v12.800781h-42.214843c-8.542969 0-16.253907 5.066406-19.648438 12.914063l-24.914062 57.714843c-.929688 2.140626-1.371094 4.410157-1.355469 6.664063-.003907.082031-.011719.164063-.011719.246094v139.042969c0 12.910156 10.503906 23.414062 23.414062 23.414062h358.546876c12.910156 0 23.414062-10.503906 23.414062-23.414062v-139.171876c0-.085937-.011719-.167968-.015625-.253906 0-2.148437-.417969-4.304687-1.277344-6.351562l-24.144531-57.664063c-3.335938-7.980469-11.082031-13.136719-19.738281-13.136719h-42.972657v-109.773437c1.585938-1.363281 3.113282-2.800781 4.570313-4.316406zm38.40625 129.449219c2.4375 0 4.621094 1.453124 5.5625 3.707031l24.152344 57.671875c.148437.363281.117187.710937-.097657 1.035156-.21875.328125-.527343.492188-.921874.492188h-32.074219c-4.242188 0-7.683594 3.4375-7.683594 7.679687s3.441406 7.679687 7.683594 7.679687h32.074219c.375 0 .746093-.011718 1.113281-.039062v122.992188c0 4.4375-3.609375 8.050781-8.050781 8.050781h-358.546876c-4.4375 0-8.050781-3.613281-8.050781-8.050781v-122.992188c.367188.027344.738281.039062 1.113281.039062h307.914063c4.242187 0 7.679687-3.4375 7.679687-7.679687s-3.4375-7.683594-7.679687-7.683594h-307.914063c-.394531 0-.707031-.164062-.921874-.496093-.21875-.328126-.246094-.679688-.089844-1.046876l24.917968-57.714843c.957032-2.214844 3.132813-3.644531 5.546876-3.644531h42.214843v25.0625h-5.796875c-4.242187 0-7.679687 3.4375-7.679687 7.679687s3.4375 7.679687 7.679687 7.679687h240.335938c4.238281 0 7.679687-3.4375 7.679687-7.679687s-3.441406-7.679687-7.679687-7.679687h-5.457032v-25.0625zm-140.101563-124.183594c-7.785156 0-14.121093-6.332032-14.121093-14.117188s6.335937-14.121094 14.121093-14.121094h32.117188c4.242188 0 7.683594-3.4375 7.683594-7.679687s-3.441406-7.683594-7.683594-7.683594h-80.273438l42.625-45.089843c8.214844-8.6875 20.199219-13.003907 32.070313-11.542969l50.46875 6.210937 27.226563 27.429688 17.773437 17.9375-31.402344 32.757812c-9.6875 10.105469-23.269531 15.902344-37.269531 15.902344h-53.335938zm0 0" fill="#ffffff" data-original="#000000" style=""/><path xmlns="http://www.w3.org/2000/svg" d="m187.3125 281.394531c1.964844 0 3.933594-.75 5.429688-2.25l63.5-63.496093c3-3 3-7.863282 0-10.863282s-7.863282-3-10.863282 0l-58.066406 58.066406-23.246094-23.246093c-3-3-7.863281-3-10.863281 0s-3 7.863281 0 10.863281l28.675781 28.675781c1.5 1.5 3.46875 2.25 5.433594 2.25zm0 0" fill="#ffffff" data-original="#000000" style=""/><path xmlns="http://www.w3.org/2000/svg" d="m81.527344 397.636719c-10.378906 0-18.820313 8.441406-18.820313 18.816406v24.152344c0 10.378906 8.441407 18.820312 18.820313 18.820312h243.320312c10.378906 0 18.820313-8.441406 18.820313-18.820312v-24.152344c0-10.375-8.441407-18.816406-18.820313-18.816406zm246.777344 18.816406v24.152344c0 1.90625-1.550782 3.457031-3.457032 3.457031h-243.320312c-1.90625 0-3.457032-1.550781-3.457032-3.457031v-24.152344c0-1.90625 1.550782-3.457031 3.457032-3.457031h243.320312c1.90625 0 3.457032 1.550781 3.457032 3.457031zm0 0" fill="#ffffff" data-original="#000000" style=""/></g></svg>
